<?xml version="1.0" encoding="UTF-8"?>
<svg version="1.1" xmlns="http://www.w3.org/2000/svg" width="1983" height="793">
<path d="M0 0 C654.39 0 1308.78 0 1983 0 C1983 261.69 1983 523.38 1983 793 C1328.61 793 674.22 793 0 793 C0 531.31 0 269.62 0 0 Z " fill="#FDFDFE" transform="translate(0,0)"/>
<path d="M0 0 C1.21429688 0.31839844 2.42859375 0.63679688 3.6796875 0.96484375 C11.41073699 3.07100493 18.68687338 5.7370745 26 9 C26.66902344 9.29326172 27.33804688 9.58652344 28.02734375 9.88867188 C55.73420616 22.07679515 80.29695949 38.02248415 103 58 C103.49951172 58.43634766 103.99902344 58.87269531 104.51367188 59.32226562 C124.99212961 77.29750486 141.09116284 98.63792743 155 122 C155.43650879 122.72864258 155.87301758 123.45728516 156.32275391 124.20800781 C161.65842752 133.19971809 166.24304809 142.42279641 170.4375 152 C170.85080566 152.94327148 171.26411133 153.88654297 171.68994141 154.85839844 C173.92290605 160.08864965 175.81376306 165.30550037 177.36376953 170.77807617 C177.99436509 172.98032105 178.69936346 175.14420743 179.4375 177.3125 C182.82974588 187.41819584 185.95251124 197.52896609 188 208 C188.25595947 209.2996167 188.25595947 209.2996167 188.51708984 210.62548828 C189.10257185 213.6832335 189.64878501 216.74618741 190.1875 219.8125 C190.36667969 220.75254883 190.54585938 221.69259766 190.73046875 222.66113281 C192.68549368 234.32636943 192 244.71490679 192 257 C102.24 257 12.48 257 -80 257 C-80 169.22 -80 81.44 -80 -9 C-53.51598567 -13.41400239 -25.54467825 -6.79947073 0 0 Z " fill="#2974D9" transform="translate(244,282)"/>
<path d="M0 0 C12.54 0 25.08 0 38 0 C40.31 3.3 42.62 6.6 45 10 C47.25158352 12.95633694 49.51419214 15.89349312 51.8125 18.8125 C53.04324074 20.38520385 54.27370797 21.95812178 55.50390625 23.53125 C56.09961426 24.29179687 56.69532227 25.05234375 57.30908203 25.8359375 C59.63796483 28.81647708 61.94707251 31.81188415 64.25 34.8125 C65.04664063 35.85019531 65.84328125 36.88789063 66.6640625 37.95703125 C67.43492187 38.96121094 68.20578125 39.96539062 69 41 C69.75023437 41.97324219 70.50046875 42.94648438 71.2734375 43.94921875 C73.85329189 47.29617271 76.42834325 50.64674506 79 54 C79.58555664 54.76344727 80.17111328 55.52689453 80.77441406 56.31347656 C90.32326694 68.77504511 99.72311915 81.33499553 109 94 C116.14494065 103.74555993 123.30238166 113.47019038 130.703125 123.0234375 C133.76057322 126.98564081 136.76138137 130.98862975 139.75390625 135 C141.33542566 137.11235984 142.92503242 139.21608656 144.52734375 141.3125 C144.94105225 141.85640381 145.35476074 142.40030762 145.78100586 142.96069336 C146.93489976 144.4769557 148.09234501 145.99051352 149.25 147.50390625 C151 150 151 150 152 153 C152.66 153 153.32 153 154 153 C154 102.84 154 52.68 154 1 C165.55 1 177.1 1 189 1 C189 71.29 189 141.58 189 214 C153 214 153 214 145.0625 206.625 C143.74551896 204.25796701 142.42854518 201.8873246 141.25439453 199.44628906 C139.13061909 195.30455494 136.28868236 191.71133644 133.5 188 C132.41271347 186.49018691 131.32806859 184.97846788 130.24609375 183.46484375 C126.57662477 178.38446449 122.76453179 173.41908251 118.9387207 168.45605469 C114.95030628 163.27165225 111.05253011 158.02688588 107.1875 152.75 C101.48896008 144.97512401 95.68130777 137.28949111 89.82543945 129.63256836 C85.81068487 124.38198029 81.82636026 119.11091489 77.875 113.8125 C71.96382619 105.89925124 65.89900563 98.10878498 59.81738281 90.32617188 C56.7074878 86.34563995 53.60340564 82.36059201 50.5 78.375 C49.93684082 77.65328613 49.37368164 76.93157227 48.79345703 76.18798828 C48.25317871 75.49431152 47.71290039 74.80063477 47.15625 74.0859375 C46.69025391 73.4882959 46.22425781 72.8906543 45.74414062 72.27490234 C43.13464487 68.87130752 40.57328842 65.43105123 38 62 C37.67 112.16 37.34 162.32 37 214 C24.79 214 12.58 214 0 214 C0 143.38 0 72.76 0 0 Z " fill="#2B75D9" transform="translate(924,293)"/>
<path d="M0 0 C1.60279192 0.00015914 3.20558896 0.00585476 4.80834961 0.01586914 C5.65038437 0.01728409 6.49241913 0.01869904 7.35997009 0.02015686 C10.06024671 0.02577276 12.76044163 0.03832791 15.46069336 0.05102539 C17.28686404 0.05603834 19.11303602 0.06060161 20.93920898 0.06469727 C25.42556878 0.07574735 29.9118672 0.0930226 34.39819336 0.11352539 C35.19376628 1.94946289 35.98933919 3.78540039 36.78491211 5.62133789 C37.30512939 6.82177734 37.82534668 8.0222168 38.36132812 9.2590332 C39.52221276 11.93796571 40.68282709 14.61701511 41.84326172 17.29614258 C44.60043488 23.66111661 47.35876163 30.02557199 50.12510681 36.38656616 C51.29136718 39.06849526 52.45658422 41.7508771 53.62173462 44.43328857 C54.17441802 45.70487655 54.72760784 46.97624454 55.28134155 48.24737549 C59.36488432 57.62211828 63.26683163 67.03069944 66.83569336 76.61352539 C68.69247929 81.46973476 70.7658099 86.10034071 73.18725586 90.69946289 C74.73333182 93.78164012 76.05804778 96.93663205 77.39819336 100.11352539 C77.89319336 101.26852539 78.38819336 102.42352539 78.89819336 103.61352539 C83.39819336 114.11352539 83.39819336 114.11352539 84.90209961 117.62524414 C85.88655714 119.92059812 86.87347039 122.21490069 87.86303711 124.50805664 C88.34901367 125.63598633 88.83499023 126.76391602 89.33569336 127.92602539 C89.8190918 129.0462207 90.30249023 130.16641602 90.80053711 131.32055664 C91.98947536 134.11009937 93.12019456 136.91891121 94.23583984 139.73852539 C96.27000804 144.83267467 98.4118232 149.87406335 100.59350586 154.90649414 C101.1778817 156.25873329 101.1778817 156.25873329 101.77406311 157.63829041 C102.59927748 159.54723327 103.42511991 161.45590475 104.2515564 163.36431885 C105.53407386 166.32615273 106.81459662 169.2888425 108.09472656 172.25170898 C111.67037748 180.52403675 115.24994865 188.79448119 118.87084961 197.04711914 C119.34312988 198.12517822 119.81541016 199.2032373 120.30200195 200.31396484 C121.13358672 202.20851676 121.9683481 204.10167881 122.80688477 205.99316406 C125.39819336 211.8941463 125.39819336 211.8941463 125.39819336 214.11352539 C112.52819336 214.11352539 99.65819336 214.11352539 86.39819336 214.11352539 C84.41819336 209.49352539 82.43819336 204.87352539 80.39819336 200.11352539 C78.86667926 197.09403413 78.86667926 197.09403413 77.32006836 194.08227539 C75.81024609 190.85790919 74.71959387 187.48627546 73.54272461 184.12915039 C71.83228535 179.62246402 69.75247079 175.30484267 67.66772461 170.96118164 C66.39819336 168.11352539 66.39819336 168.11352539 65.39819336 164.11352539 C31.73819336 164.11352539 -1.92180664 164.11352539 -36.60180664 164.11352539 C-38.25180664 168.40352539 -39.90180664 172.69352539 -41.60180664 177.11352539 C-42.73506727 179.60813935 -43.89583862 182.09073687 -45.10180664 184.55102539 C-47.9730123 190.51754224 -50.28127818 196.50494667 -52.36352539 202.79711914 C-53.81749668 206.69119367 -55.74289034 210.3956928 -57.60180664 214.11352539 C-70.14180664 214.11352539 -82.68180664 214.11352539 -95.60180664 214.11352539 C-94.90533653 210.63117485 -94.39016515 208.29193334 -93.02294922 205.18798828 C-92.70203812 204.45274429 -92.38112701 203.71750031 -92.05049133 202.9599762 C-91.52868538 201.78494789 -91.52868538 201.78494789 -90.99633789 200.58618164 C-90.63465012 199.76081406 -90.27296234 198.93544647 -89.90031433 198.08506775 C-88.74297409 195.4466428 -87.57885433 192.81127593 -86.41430664 190.17602539 C-85.65016435 188.438602 -84.88648796 186.70097362 -84.12329102 184.96313477 C-83.00156796 182.4090118 -81.87961689 179.85499434 -80.75598145 177.30171204 C-76.74033036 168.1722575 -72.79651539 159.01442763 -68.97680664 149.80102539 C-66.23637572 143.21177271 -63.43808472 136.70710784 -60.16430664 130.36352539 C-58.31937065 126.7168941 -56.77268097 123.05626728 -55.34790039 119.22680664 C-52.49660795 111.73086297 -49.32057989 104.39344416 -46.10180664 97.05102539 C-44.98583363 94.4982452 -43.87153837 91.94473688 -42.75805664 89.39086914 C-42.35296875 88.46280457 -42.35296875 88.46280457 -41.93969727 87.51599121 C-40.23669378 83.60421085 -38.57724712 79.67662366 -36.94555664 75.73461914 C-34.92515592 70.85645758 -32.79668058 66.04017288 -30.60180664 61.23852539 C-26.66184571 52.54640739 -22.83214098 43.80805876 -19.03930664 35.05102539 C-18.76074829 34.4080954 -18.48218994 33.76516541 -18.19519043 33.10275269 C-14.35768443 24.23903004 -10.56078617 15.35893169 -6.87304688 6.43164062 C-4.25579952 0.1341386 -4.25579952 0.1341386 0 0 Z " fill="#2C76D9" transform="translate(1708.601806640625,292.886474609375)"/>
<path d="M0 0 C52.14 0 104.28 0 158 0 C158 10.89 158 21.78 158 33 C117.74 33 77.48 33 36 33 C36 51.81 36 70.62 36 90 C71.97 90 107.94 90 145 90 C145 100.56 145 111.12 145 122 C109.36 122 73.72 122 37 122 C37 141.47 37 160.94 37 181 C77.59 181 118.18 181 160 181 C160 191.89 160 202.78 160 214 C107.2 214 54.4 214 0 214 C0 143.38 0 72.76 0 0 Z " fill="#2B75D9" transform="translate(1182,293)"/>
<path d="M0 0 C5.97700591 -0.27310578 11.9503444 -0.47203532 17.93212891 -0.60424805 C19.96369708 -0.65937814 21.99483241 -0.73431092 24.02490234 -0.82983398 C40.81069994 -1.59956036 40.81069994 -1.59956036 45.89208984 2.11303711 C47.9801311 4.97119921 49.47709859 7.80888409 51 11 C52.23049826 12.82315901 53.49383638 14.6245856 54.7890625 16.40234375 C56.06880298 18.24663675 57.34741776 20.09171129 58.625 21.9375 C60.02841389 23.9597964 61.43206414 25.98192879 62.8359375 28.00390625 C63.53299805 29.00824707 64.23005859 30.01258789 64.94824219 31.04736328 C69.7232156 37.91891593 74.52595698 44.7709839 79.33300781 51.62011719 C81.02636774 54.03764393 82.71280262 56.45989474 84.3984375 58.8828125 C85.47383404 60.42196185 86.54934947 61.96102814 87.625 63.5 C88.11000977 64.20044434 88.59501953 64.90088867 89.09472656 65.62255859 C91.50206638 69.0566331 93.89609229 72.14382201 97 75 C97.25265625 74.4534375 97.5053125 73.906875 97.765625 73.34375 C99.23068158 70.561997 100.94635945 68.07662935 102.75 65.5 C103.13704102 64.94594482 103.52408203 64.39188965 103.92285156 63.82104492 C104.79510778 62.57311232 105.66855302 61.32601025 106.54296875 60.07958984 C108.11659075 57.83359249 109.68358719 55.58306184 111.25 53.33203125 C119.05072356 42.13580247 126.98181583 31.04120218 135 20 C137.4185678 16.66804038 139.83483039 13.3344233 142.25 10 C142.81146729 9.22769043 143.37293457 8.45538086 143.95141602 7.65966797 C144.46760498 6.94697754 144.98379395 6.23428711 145.515625 5.5 C145.97227539 4.8709375 146.42892578 4.241875 146.89941406 3.59375 C148.06740722 1.98206325 148.06740722 1.98206325 149 0 C162.86 0 176.72 0 191 0 C191 0.66 191 1.32 191 2 C190.34 2 189.68 2 189 2 C188.78214844 2.67417969 188.56429688 3.34835937 188.33984375 4.04296875 C186.58672381 7.91209934 184.1611987 10.97248229 181.5625 14.3125 C177.3504556 19.82212377 173.27426907 25.38950423 169.375 31.125 C166.03140069 36.03950938 162.65776317 40.92395575 159.1875 45.75 C155.13833336 51.38284432 151.1558261 57.05994905 147.1875 62.75 C142.55094573 69.39161904 137.87015305 75.99801229 133.125 82.5625 C132.59011963 83.30556396 132.05523926 84.04862793 131.50415039 84.81420898 C129.17279405 88.04366614 126.825435 91.2502983 124.375 94.390625 C123.6325 95.35484375 122.89 96.3190625 122.125 97.3125 C121.16980469 98.51326172 121.16980469 98.51326172 120.1953125 99.73828125 C118.82275197 101.91847847 118.82275197 101.91847847 118.97265625 104.33984375 C120.44964512 108.16429021 122.78560467 111.04929214 125.3125 114.25 C126.4148298 115.68200316 127.51502701 117.11565002 128.61328125 118.55078125 C129.17740723 119.28635254 129.7415332 120.02192383 130.32275391 120.77978516 C132.96342692 124.2753136 135.48638165 127.85000203 138 131.4375 C138.49483887 132.14237549 138.98967773 132.84725098 139.49951172 133.57348633 C140.50189754 135.00288656 141.50352625 136.43281802 142.50439453 137.86328125 C144.9750349 141.39299794 147.45498672 144.91612659 149.9375 148.4375 C150.42992187 149.13609131 150.92234375 149.83468262 151.4296875 150.55444336 C155.08450204 155.72873517 158.78394226 160.86956405 162.5 166 C167.72070152 173.20776603 172.88050108 180.45558393 177.99609375 187.73828125 C180.09671776 190.72696265 182.21645113 193.70102106 184.34765625 196.66796875 C184.89607178 197.43488037 185.4444873 198.20179199 186.00952148 198.99194336 C187.05833049 200.45793014 188.11101084 201.92115783 189.16821289 203.38110352 C189.64121826 204.04424561 190.11422363 204.7073877 190.6015625 205.390625 C191.01744629 205.96844727 191.43333008 206.54626953 191.86181641 207.14160156 C193.20665607 209.33742299 194.09999054 211.59204821 195 214 C157.86794423 216.99276179 157.86794423 216.99276179 148.88085938 212.40917969 C144.43196576 208.29660827 142.23497841 203.17351497 140.09423828 197.59082031 C138.33755315 193.43152924 135.69870193 190.02825394 133 186.4375 C132.00561437 185.04024483 131.01472908 183.64049201 130.02734375 182.23828125 C126.90005629 177.84705268 123.73036901 173.48698491 120.5625 169.125 C114.84770306 161.2542287 109.33587383 153.25546267 103.875 145.20703125 C102.91678018 143.80460993 101.95845063 142.40226358 101 141 C100.53335937 140.30567871 100.06671875 139.61135742 99.5859375 138.89599609 C98.44133549 137.22803987 97.22700156 135.60830933 96 134 C95.34 134 94.68 134 94 134 C92.64713857 135.57785205 92.64713857 135.57785205 91.3125 137.6640625 C90.78406494 138.449021 90.25562988 139.23397949 89.71118164 140.04272461 C89.1464917 140.89487549 88.58180176 141.74702637 88 142.625 C86.81233385 144.39008778 85.62352382 146.1544064 84.43359375 147.91796875 C83.84690918 148.7898584 83.26022461 149.66174805 82.65576172 150.56005859 C80.50895621 153.72360538 78.29994636 156.83768983 76.0625 159.9375 C67.17434647 172.29183178 58.4583905 184.77405294 49.90258789 197.36083984 C49.08320977 198.56082697 48.24198211 199.74612653 47.38183594 200.91723633 C45.88250438 203.06431702 45.88250438 203.06431702 44.65722656 205.88549805 C42.74246068 209.44406697 41.23701716 211.54530219 38 214 C31.06149971 215.84123322 23.59067526 215.02936765 16.5 214.6875 C14.51315594 214.6322739 12.52616486 214.58209235 10.5390625 214.53710938 C5.68905958 214.41636552 0.8461503 214.22688564 -4 214 C-2.83010316 210.88005227 -1.60685234 208.17315394 0.328125 205.4609375 C1.02216431 204.48169312 1.02216431 204.48169312 1.73022461 203.48266602 C2.23175049 202.78713623 2.73327637 202.09160645 3.25 201.375 C3.77795166 200.63499756 4.30590332 199.89499512 4.84985352 199.13256836 C9.99196317 191.95135922 15.2447315 184.85143762 20.49609375 177.75 C29.14311308 166.04561612 37.58163716 154.20217171 45.90136719 142.26342773 C49.45735732 137.17144466 53.06462712 132.12408209 56.75 127.125 C57.18691162 126.53074219 57.62382324 125.93648438 58.07397461 125.32421875 C59.85704416 122.90097886 61.64231802 120.47961627 63.44091797 118.06787109 C64.86502149 116.15558507 66.27705541 114.23487255 67.6875 112.3125 C68.12223633 111.73580566 68.55697266 111.15911133 69.00488281 110.56494141 C71.37010716 107.31880154 72 106.16714336 72 102 C71.14652668 100.24600839 71.14652668 100.24600839 69.8671875 98.59375 C69.39804932 97.942854 68.92891113 97.29195801 68.44555664 96.62133789 C67.92727295 95.92129639 67.40898926 95.22125488 66.875 94.5 C65.76619894 92.96797465 64.65815664 91.43539992 63.55078125 89.90234375 C62.9676416 89.10038574 62.38450195 88.29842773 61.78369141 87.47216797 C58.82509298 83.37159752 55.9492376 79.2137998 53.0625 75.0625 C48.02723857 67.84995936 42.91859182 60.69506634 37.75195312 53.57617188 C34.144897 48.60167771 30.59108262 43.5928811 27.0625 38.5625 C22.67667789 32.32099694 18.21022747 26.14302487 13.6875 20 C13.12490479 19.23502197 12.56230957 18.47004395 11.98266602 17.68188477 C8.51568265 12.98999929 4.9582359 8.38935285 1.29614258 3.84765625 C0 2 0 2 0 0 Z " fill="#2B75D8" transform="translate(1385,293)"/>
<path d="M0 0 C52.14 0 104.28 0 158 0 C158 10.89 158 21.78 158 33 C118.07 33 78.14 33 37 33 C37 52.8 37 72.6 37 93 C72.64 93 108.28 93 145 93 C145 103.56 145 114.12 145 125 C109.36 125 73.72 125 37 125 C37 154.37 37 183.74 37 214 C24.79 214 12.58 214 0 214 C0 143.38 0 72.76 0 0 Z " fill="#2B75D9" transform="translate(613,293)"/>
<path d="M0 0 C51.48 0 102.96 0 156 0 C156 50.82 156 101.64 156 154 C155.34 154 154.68 154 154 154 C153.68107788 153.11948975 153.68107788 153.11948975 153.35571289 152.22119141 C150.69039149 145.18936747 147.26568476 138.83613733 143.4375 132.375 C142.81834717 131.32393066 142.19919434 130.27286133 141.5612793 129.18994141 C121.43348726 95.34748473 95.0385105 64.31440148 63.74804688 40.34521484 C62.0253644 39.01951925 60.31595664 37.67836758 58.609375 36.33203125 C51.98548701 31.12678122 45.22493261 26.34603226 38 22 C37.38141113 21.62375488 36.76282227 21.24750977 36.12548828 20.85986328 C24.54627731 13.83092255 12.6907715 6.84380592 0 2 C0 1.34 0 0.68 0 0 Z " fill="#2D77D9" transform="translate(298,254)"/>
<path d="M0 0 C12.21 0 24.42 0 37 0 C37 70.62 37 141.24 37 214 C24.79 214 12.58 214 0 214 C0 143.38 0 72.76 0 0 Z " fill="#2C76D9" transform="translate(821,293)"/>
<path d="M0 0 C0.66 0 1.32 0 2 0 C10.5502253 20.22515103 19.05761607 40.46601111 27.39306641 60.78076172 C27.66395081 61.44065094 27.93483521 62.10054016 28.21392822 62.78042603 C28.73774224 64.05822205 29.26036416 65.33650754 29.78167725 66.61532593 C30.9899324 69.57351357 32.22478911 72.5153274 33.50244141 75.44433594 C33.96183105 76.50168945 34.4212207 77.55904297 34.89453125 78.6484375 C35.50518433 80.02394775 35.50518433 80.02394775 36.12817383 81.42724609 C37 84 37 84 37 89 C13.24 89 -10.52 89 -35 89 C-33.87502405 81.12516838 -33.87502405 81.12516838 -32.56396484 78.01293945 C-32.27157425 77.30754532 -31.97918365 76.60215118 -31.67793274 75.87538147 C-31.35882431 75.1288884 -31.03971588 74.38239532 -30.7109375 73.61328125 C-30.37535324 72.80994858 -30.03976898 72.00661591 -29.6940155 71.17893982 C-28.59524801 68.55354322 -27.48517352 65.93309122 -26.375 63.3125 C-25.60979315 61.4895945 -24.84539831 59.66634793 -24.08178711 57.84277344 C-22.50981312 54.09158548 -20.93361545 50.3422163 -19.35400391 46.59423828 C-16.05969743 38.77324853 -12.80133497 30.93732792 -9.54156494 23.10189819 C-8.57826569 20.78787214 -7.61341239 18.47450091 -6.64794922 16.16137695 C-6.3484285 15.44353531 -6.04890778 14.72569366 -5.74031067 13.98609924 C-5.18693199 12.66001168 -4.63331272 11.33402447 -4.07939148 10.00816345 C-2.69228059 6.68264783 -1.32858161 3.34933883 0 0 Z " fill="#FAFBFD" transform="translate(1722,334)"/>
<path d="M0 0 C13.86 0 27.72 0 42 0 C42 0.66 42 1.32 42 2 C38.13193374 3.28935542 34.49257461 3.10379181 30.46484375 3.0625 C29.63038223 3.05871338 28.79592072 3.05492676 27.93617249 3.05102539 C25.26989605 3.03880456 22.60372744 3.0201714 19.9375 3 C16.42578423 2.97348457 12.91412158 2.95345404 9.40234375 2.9375 C8.59087387 2.92920166 7.77940399 2.92090332 6.94334412 2.91235352 C2.84044694 2.78733926 2.84044694 2.78733926 -1 4 C-0.67 2.68 -0.34 1.36 0 0 Z " fill="#4084DE" transform="translate(1534,293)"/>
<path d="M0 0 C2.22825644 2.22825644 2.69239369 3.65761628 3.625 6.625 C3.88539062 7.44226563 4.14578125 8.25953125 4.4140625 9.1015625 C4.60742188 9.72804688 4.80078125 10.35453125 5 11 C4.01 10.67 3.02 10.34 2 10 C1.05078125 7.93359375 1.05078125 7.93359375 0.3125 5.4375 C0.06113281 4.61121094 -0.19023438 3.78492188 -0.44921875 2.93359375 C-0.63097656 2.29550781 -0.81273437 1.65742188 -1 1 C-0.67 0.67 -0.34 0.34 0 0 Z " fill="#4085E0" transform="translate(1810,452)"/>
<path d="M0 0 C1 3 1 3 0.22265625 4.82421875 C-0.8515625 6.54947917 -1.92578125 8.27473958 -3 10 C-3.99 10 -4.98 10 -6 10 C-4.34832443 6.4213696 -2.21713508 3.25179812 0 0 Z " fill="#3A80DD" transform="translate(1527,303)"/>
<path d="M0 0 C0.33 0.99 0.66 1.98 1 3 C-0.75 6.1875 -0.75 6.1875 -3 9 C-3.99 9 -4.98 9 -6 9 C-4.02 6.03 -2.04 3.06 0 0 Z " fill="#327DDD" transform="translate(1418,453)"/>
<path d="M0 0 C0.75 1.75 0.75 1.75 1 4 C-0.9375 6.25 -0.9375 6.25 -3 8 C-3.33 7.34 -3.66 6.68 -4 6 C-2.68 4.02 -1.36 2.04 0 0 Z " fill="#3B81DD" transform="translate(1665,387)"/>
<path d="M0 0 C0.66 0.99 1.32 1.98 2 3 C1.01 4.32 0.02 5.64 -1 7 C-1.99 6.67 -2.98 6.34 -4 6 C-2.68 4.02 -1.36 2.04 0 0 Z " fill="#3881DF" transform="translate(1400,478)"/>
<path d="M0 0 C2 4 2 4 1.3125 6.1875 C0 8 0 8 -3 9 C-2.01 6.03 -1.02 3.06 0 0 Z " fill="#4B8CE4" transform="translate(1626,474)"/>
</svg>
