<?xml version="1.0" encoding="UTF-8"?>
<svg version="1.1" xmlns="http://www.w3.org/2000/svg" width="168" height="163">
<path d="M0 0 C55.44 0 110.88 0 168 0 C168 53.79 168 107.58 168 163 C112.56 163 57.12 163 0 163 C0 109.21 0 55.42 0 0 Z " fill="#3098FA" transform="translate(0,0)"/>
<path d="M0 0 C55.44 0 110.88 0 168 0 C168 53.79 168 107.58 168 163 C112.56 163 57.12 163 0 163 C0 109.21 0 55.42 0 0 Z M25 28 C24.04662264 30.86013209 23.87027266 32.64888774 23.85955811 35.61703491 C23.85384796 36.56473251 23.84813782 37.51243011 23.84225464 38.48884583 C23.84113678 39.52683823 23.84001892 40.56483063 23.83886719 41.63427734 C23.83390228 42.72883743 23.82893738 43.82339752 23.82382202 44.9511261 C23.80919245 48.57940291 23.8023974 52.20763602 23.796875 55.8359375 C23.79112465 58.3531596 23.7853669 60.87038169 23.77960205 63.38760376 C23.77043417 67.99333448 23.76413447 72.59905262 23.7611053 77.20479143 C23.7566244 83.98021983 23.73907322 90.75544651 23.7101047 97.53081357 C23.68587266 103.40250378 23.67816049 109.27412673 23.67642975 115.14586258 C23.67339935 117.64255497 23.66535786 120.13924643 23.65224457 122.63590622 C23.63521858 126.12640484 23.63705605 129.61641047 23.64355469 133.10693359 C23.6343399 134.14087753 23.62512512 135.17482147 23.6156311 136.24009705 C23.60938774 143.14018229 23.60938774 143.14018229 27 149 C29.99329069 151.65298862 31.85272687 152.37736234 35.83772278 152.40113831 C36.80914719 152.41393326 37.78057159 152.42672821 38.78143311 152.43991089 C40.37039398 152.43787155 40.37039398 152.43787155 41.99145508 152.43579102 C43.11220932 152.44586685 44.23296356 152.45594269 45.38768005 152.46632385 C49.09839818 152.49485638 52.80871021 152.50068337 56.51953125 152.50390625 C59.09779529 152.5135443 61.67605767 152.52363655 64.25431824 152.53416443 C69.66218567 152.55213958 75.06989182 152.55781249 80.4777832 152.5559082 C86.71850983 152.55410726 92.9584573 152.5857364 99.19898683 152.63313919 C105.21223755 152.67717976 111.22506711 152.68787009 117.2385006 152.68607903 C119.79217395 152.68961848 122.34585311 152.70288439 124.8994236 152.72607613 C128.4737252 152.75549641 132.046027 152.74683771 135.62036133 152.72875977 C137.20021317 152.75404755 137.20021317 152.75404755 138.8119812 152.77984619 C144.85593539 152.70223099 148.3212414 151.86553458 152.77115917 147.67750454 C155.09044707 144.51141834 155.12555528 141.28014628 155.13371277 137.45925903 C155.13797775 136.5537027 155.14224274 135.64814636 155.14663696 134.71514893 C155.14618378 133.72907654 155.14573059 132.74300415 155.14526367 131.72705078 C155.14862228 130.68271881 155.1519809 129.63838684 155.15544128 128.56240845 C155.16494788 125.10669773 155.16689425 121.65103548 155.16796875 118.1953125 C155.17118149 115.79401632 155.17454558 113.39272033 155.17805481 110.99142456 C155.18404532 105.95602973 155.18589478 100.92065205 155.18530273 95.88525391 C155.18520111 89.43342185 155.19885423 82.98169984 155.21607494 76.52989388 C155.227194 71.56964614 155.22922197 66.60942503 155.22869301 61.64916611 C155.22987323 59.2705332 155.23429735 56.89189961 155.24202538 54.51327896 C155.25182332 51.18602034 155.24894786 47.85900075 155.24291992 44.53173828 C155.24853943 43.54971436 155.25415894 42.56769043 155.25994873 41.5559082 C155.22984543 35.01637318 154.99000284 30.32816195 150.57714844 25.16543579 C146.13605277 21.82489111 141.1041845 22.30174803 135.765625 22.35302734 C134.08164612 22.33988495 134.08164612 22.33988495 132.36364746 22.32647705 C128.65870328 22.30449985 124.95495598 22.31903141 121.25 22.3359375 C118.67219819 22.33256893 116.09439793 22.32771596 113.51660156 22.32144165 C108.11636757 22.31407251 102.71658205 22.3242995 97.31640625 22.34814453 C91.08248068 22.37535406 84.84937284 22.36653896 78.61546707 22.3390125 C72.60644532 22.31354606 66.59782205 22.31629518 60.58874512 22.33092117 C58.03706752 22.33425561 55.48536903 22.33016686 52.93371582 22.31852341 C49.36670729 22.30581867 45.8012668 22.32519 42.234375 22.35302734 C40.65384338 22.33784561 40.65384338 22.33784561 39.04138184 22.32235718 C32.5984682 22.41546671 29.35605009 23.11481914 25 28 Z " fill="#F9F9F9" transform="translate(0,0)"/>
<path d="M0 0 C-0.9473005 10.27891732 -2.51436115 20.36881966 -4.5 30.5 C-4.71358154 31.61624756 -4.92716309 32.73249512 -5.1472168 33.88256836 C-5.46106323 35.44116577 -5.46106323 35.44116577 -5.78125 37.03125 C-5.96751953 37.96517578 -6.15378906 38.89910156 -6.34570312 39.86132812 C-6.56162109 40.56708984 -6.77753906 41.27285156 -7 42 C-7.99 42.495 -7.99 42.495 -9 43 C-10.32 39.04 -11.64 35.08 -13 31 C-17.04038298 33.95813754 -20.91542579 36.88184558 -24.5625 40.3125 C-35.99991457 50.43193125 -50.89600178 56.69714739 -64.875 62.4375 C-81.75859536 69.40425239 -96.92615164 77.35127714 -110.890625 89.25 C-113 91 -113 91 -115 92 C-113.60444499 87.22042122 -111.33236236 85.41731801 -107.37109375 82.51953125 C-97.42744094 74.67758025 -88.07016664 67.09091601 -86.36094666 53.89259338 C-85.43796438 42.60783239 -86.00710197 31.26211884 -87 20 C-80.68287007 19.97461752 -74.36575332 19.95711943 -68.04858398 19.94506836 C-65.90014148 19.94004371 -63.7517024 19.93322292 -61.60327148 19.92456055 C-58.5128495 19.91241322 -55.42247278 19.90675295 -52.33203125 19.90234375 C-51.37351761 19.89718246 -50.41500397 19.89202118 -49.42744446 19.88670349 C-48.52688828 19.88662796 -47.62633209 19.88655243 -46.69848633 19.88647461 C-45.91016922 19.884254 -45.12185211 19.88203339 -44.30964661 19.87974548 C-41.79580145 20.01063184 -39.45389823 20.45179104 -37 21 C-38.12436254 24.37308761 -39.07342733 25.15123097 -41.75 27.375 C-44.17954631 29.40580397 -46.1563496 31.1995401 -48.12109375 33.70703125 C-52.36732747 37.0890383 -56.05525242 36.55399901 -61.3125 36.3125 C-62.70952148 36.27866211 -62.70952148 36.27866211 -64.13476562 36.24414062 C-66.42387127 36.18544561 -68.71214561 36.09577065 -71 36 C-71 42.27 -71 48.54 -71 55 C-59.17385481 47.95676253 -48.70154376 40.76640604 -39 31 C-37.85941409 29.88144328 -36.71745897 28.76428121 -35.57421875 27.6484375 C-30.17327717 22.78274998 -30.17327717 22.78274998 -26 17 C-29.96 17 -33.92 17 -38 17 C-35.26799846 14.26799846 -34.1944024 13.46324458 -30.7890625 12.16796875 C-29.96196777 11.84699219 -29.13487305 11.52601562 -28.28271484 11.1953125 C-27.40566895 10.86273438 -26.52862305 10.53015625 -25.625 10.1875 C-18.386999 7.37946356 -11.32821333 4.4105504 -4.3359375 1.03125 C-2 0 -2 0 0 0 Z " fill="#F6F8F9" transform="translate(143,36)"/>
<path d="M0 0 C0 8.91 0 17.82 0 27 C-5.28 27 -10.56 27 -16 27 C-17.37083126 10.85465406 -17.37083126 10.85465406 -14.20703125 6.57421875 C-11.8539601 5.04886107 -9.62115878 3.98613628 -7 3 C-5.845 2.38125 -4.69 1.7625 -3.5 1.125 C-1 0 -1 0 0 0 Z " fill="#EFF2F7" transform="translate(72,104)"/>
<path d="M0 0 C0 3 0 3 -1.46875 4.80932617 C-2.1390625 5.46392822 -2.809375 6.11853027 -3.5 6.79296875 C-4.5828125 7.8612793 -4.5828125 7.8612793 -5.6875 8.95117188 C-6.450625 9.68916016 -7.21375 10.42714844 -8 11.1875 C-8.763125 11.93708984 -9.52625 12.68667969 -10.3125 13.45898438 C-12.20180839 15.31286823 -14.09775206 17.15941069 -16 19 C-15.67 19.66 -15.34 20.32 -15 21 C-16.62319675 22.31472947 -18.248615 23.62671662 -19.875 24.9375 C-20.77992187 25.66839844 -21.68484375 26.39929688 -22.6171875 27.15234375 C-25 29 -25 29 -27 30 C-25.56593018 25.2766748 -22.79353907 22.40078501 -19.3359375 19.04296875 C-18.78386627 18.49514236 -18.23179504 17.94731598 -17.66299438 17.38288879 C-15.90727578 15.64389177 -14.14139137 13.91564842 -12.375 12.1875 C-11.179 11.00655523 -9.98367961 9.82492177 -8.7890625 8.64257812 C-5.86718538 5.75368368 -2.93614884 2.87438519 0 0 Z " fill="#E4EBF6" transform="translate(55,98)"/>
<path d="M0 0 C0.33 0 0.66 0 1 0 C1.02505615 0.83660156 1.0501123 1.67320313 1.07592773 2.53515625 C1.17172836 5.67376726 1.27091655 8.81224881 1.37231445 11.95068359 C1.43632741 13.96313601 1.4965197 15.9757088 1.55664062 17.98828125 C1.79686881 25.95337544 1.79686881 25.95337544 2.59765625 33.875 C2.73042969 34.90625 2.86320312 35.9375 3 37 C2.505 37.495 2.505 37.495 2 38 C1.92741054 40.18639453 1.91626217 42.37500389 1.9375 44.5625 C1.94652344 45.76003906 1.95554687 46.95757812 1.96484375 48.19140625 C1.97644531 49.11824219 1.98804687 50.04507813 2 51 C0 49 0 49 -0.24050903 46.89926147 C-0.23606781 46.03322296 -0.23162659 45.16718445 -0.22705078 44.27490234 C-0.22682419 42.80360367 -0.22682419 42.80360367 -0.22659302 41.30258179 C-0.21627045 40.24108917 -0.20594788 39.17959656 -0.1953125 38.0859375 C-0.1924826 37.00116119 -0.18965271 35.91638489 -0.18673706 34.79873657 C-0.17551578 31.32404687 -0.15040762 27.84961218 -0.125 24.375 C-0.11497272 22.02344121 -0.10584643 19.6718784 -0.09765625 17.3203125 C-0.07557011 11.54678756 -0.04207345 5.77341199 0 0 Z " fill="#2C77E2" transform="translate(24,95)"/>
<path d="M0 0 C0.66 0.33 1.32 0.66 2 1 C0.35 2.65 -1.3 4.3 -3 6 C-2.01 6.99 -1.02 7.98 0 9 C-2.31 10.98 -4.62 12.96 -7 15 C-7 14.01 -7 13.02 -7 12 C-8.32 11.67 -9.64 11.34 -11 11 C-7.37 7.37 -3.74 3.74 0 0 Z " fill="#4BACFB" transform="translate(103,60)"/>
<path d="M0 0 C0.33 0.66 0.66 1.32 1 2 C-0.78881736 3.00508801 -2.58114696 4.00392736 -4.375 5 C-5.37273437 5.556875 -6.37046875 6.11375 -7.3984375 6.6875 C-10 8 -10 8 -12 8 C-10.3050685 4.21899896 -8.52116592 1.9507287 -5 -0.25 C-3 -1 -3 -1 0 0 Z " fill="#318AF5" transform="translate(70,103)"/>
<path d="M0 0 C0.66 0.33 1.32 0.66 2 1 C2 1.99 2 2.98 2 4 C1.34 4.66 0.68 5.32 0 6 C-0.69748583 7.31747324 -1.36959957 8.64914193 -2 10 C-2.99 10 -3.98 10 -5 10 C-4.34 9.01 -3.68 8.02 -3 7 C-2.32136945 5.0040278 -1.65358081 3.00431449 -1 1 C-0.67 0.67 -0.34 0.34 0 0 Z " fill="#4FBAFD" transform="translate(129,66)"/>
<path d="M0 0 C0.66 0.33 1.32 0.66 2 1 C1.67 1.33 1.34 1.66 1 2 C3.97 2.495 3.97 2.495 7 3 C6.67 3.66 6.34 4.32 6 5 C2.04 4.67 -1.92 4.34 -6 4 C-3 1 -3 1 0 0 Z " fill="#D6E9F8" transform="translate(111,49)"/>
<path d="M0 0 C1.65 0 3.3 0 5 0 C5.33 0.66 5.66 1.32 6 2 C4.02 2.66 2.04 3.32 0 4 C0 2.68 0 1.36 0 0 Z " fill="#218DFE" transform="translate(86,95)"/>
</svg>
